<?xml version="1.0" encoding="UTF-8" standalone="no"?>
<!-- Created with Inkscape (http://www.inkscape.org/) -->

<svg
   xmlns:dc="http://purl.org/dc/elements/1.1/"
   xmlns:cc="http://creativecommons.org/ns#"
   xmlns:rdf="http://www.w3.org/1999/02/22-rdf-syntax-ns#"
   xmlns:svg="http://www.w3.org/2000/svg"
   xmlns="http://www.w3.org/2000/svg"
   xmlns:sodipodi="http://sodipodi.sourceforge.net/DTD/sodipodi-0.dtd"
   xmlns:inkscape="http://www.inkscape.org/namespaces/inkscape"
   width="68.051384mm"
   height="29.8405mm"
   viewBox="0 0 68.051384 29.8405"
   version="1.1"
   id="svg8"
   inkscape:version="0.92.4 (5da689c313, 2019-01-14)"
   sodipodi:docname="logoInsst.svg">
  <defs
     id="defs2">
    <clipPath
       id="clipPath3731"
       clipPathUnits="userSpaceOnUse">
      <path
         inkscape:connector-curvature="0"
         id="path3729"
         d="M 0,595.28 H 841.89 V 0 H 0 Z" />
    </clipPath>
  </defs>
  <sodipodi:namedview
     id="base"
     pagecolor="#ffffff"
     bordercolor="#666666"
     borderopacity="1.0"
     inkscape:pageopacity="0.0"
     inkscape:pageshadow="2"
     inkscape:zoom="0.35"
     inkscape:cx="-108.54183"
     inkscape:cy="136.39152"
     inkscape:document-units="mm"
     inkscape:current-layer="layer1"
     showgrid="false"
     inkscape:window-width="1920"
     inkscape:window-height="1027"
     inkscape:window-x="-8"
     inkscape:window-y="-8"
     inkscape:window-maximized="1" />
  <metadata
     id="metadata5">
    <rdf:RDF>
      <cc:Work
         rdf:about="">
        <dc:format>image/svg+xml</dc:format>
        <dc:type
           rdf:resource="http://purl.org/dc/dcmitype/StillImage" />
        <dc:title></dc:title>
      </cc:Work>
    </rdf:RDF>
  </metadata>
  <g
     inkscape:label="Capa 1"
     inkscape:groupmode="layer"
     id="layer1"
     transform="translate(-37.789789,-155.07976)">
    <g
       transform="matrix(0.35277777,0,0,-0.35277777,-77.020658,274.7857)"
       inkscape:label="FINAL - Logo INSST abreviado - 10-08-2018"
       id="g3721">
      <path
         inkscape:connector-curvature="0"
         id="path3723"
         style="fill:#002f87;fill-opacity:1;fill-rule:nonzero;stroke:none"
         d="m 354.991,308.579 h 2.463 v -18.868 h -2.463 z m 0,7.568 h 2.463 v -3.622 h -2.463 z" />
      <g
         id="g3725">
        <g
           clip-path="url(#clipPath3731)"
           id="g3727">
          <g
             transform="translate(378.6022,289.7108)"
             id="g3733">
            <path
               inkscape:connector-curvature="0"
               id="path3735"
               style="fill:#002f87;fill-opacity:1;fill-rule:nonzero;stroke:none"
               d="m 0,0 h -2.463 v 10.539 c 0,2.245 -0.326,3.874 -0.977,4.888 -0.653,1.014 -1.666,1.521 -3.042,1.521 -0.725,0 -1.45,-0.133 -2.173,-0.398 -0.725,-0.266 -1.401,-0.64 -2.029,-1.123 -0.628,-0.483 -1.176,-1.056 -1.647,-1.72 -0.471,-0.664 -0.827,-1.382 -1.068,-2.155 V 0 h -2.463 v 18.868 h 2.245 v -4.274 c 0.386,0.676 0.863,1.298 1.43,1.865 0.568,0.567 1.202,1.056 1.902,1.467 0.7,0.41 1.442,0.724 2.227,0.942 0.785,0.217 1.599,0.325 2.445,0.325 1.061,0 1.949,-0.193 2.661,-0.579 0.712,-0.386 1.286,-0.929 1.721,-1.63 0.434,-0.7 0.748,-1.557 0.941,-2.571 C -0.097,13.399 0,12.277 0,11.045 Z" />
          </g>
          <g
             transform="translate(390.0456,289.3485)"
             id="g3737">
            <path
               inkscape:connector-curvature="0"
               id="path3739"
               style="fill:#002f87;fill-opacity:1;fill-rule:nonzero;stroke:none"
               d="m 0,0 c -1.474,0 -2.91,0.242 -4.31,0.725 -1.4,0.482 -2.607,1.182 -3.622,2.1 l 1.123,1.666 c 1.063,-0.869 2.143,-1.521 3.242,-1.956 1.098,-0.434 2.275,-0.652 3.531,-0.652 1.52,0 2.733,0.308 3.639,0.924 0.906,0.615 1.358,1.49 1.358,2.625 0,0.531 -0.121,0.972 -0.362,1.322 C 4.357,7.104 4.001,7.412 3.53,7.678 3.06,7.943 2.468,8.178 1.756,8.384 1.044,8.588 0.217,8.8 -0.725,9.018 c -1.086,0.265 -2.028,0.53 -2.824,0.796 -0.797,0.266 -1.455,0.567 -1.974,0.906 -0.519,0.338 -0.906,0.754 -1.159,1.249 -0.254,0.494 -0.38,1.116 -0.38,1.865 0,0.941 0.187,1.774 0.561,2.499 0.374,0.724 0.881,1.322 1.522,1.792 0.638,0.471 1.387,0.827 2.245,1.069 0.856,0.241 1.768,0.362 2.734,0.362 1.448,0 2.764,-0.236 3.947,-0.706 1.183,-0.471 2.137,-1.093 2.861,-1.865 L 5.613,15.536 c -0.701,0.724 -1.551,1.268 -2.553,1.63 -1.002,0.362 -2.046,0.543 -3.132,0.543 -0.653,0 -1.256,-0.067 -1.812,-0.199 -0.555,-0.133 -1.044,-0.344 -1.467,-0.634 -0.421,-0.29 -0.753,-0.658 -0.995,-1.105 -0.242,-0.446 -0.362,-0.972 -0.362,-1.575 0,-0.507 0.084,-0.918 0.253,-1.231 0.169,-0.314 0.447,-0.586 0.833,-0.815 0.387,-0.23 0.875,-0.435 1.467,-0.616 C -1.563,11.354 -0.846,11.166 0,10.973 1.207,10.684 2.269,10.394 3.187,10.104 4.104,9.814 4.87,9.476 5.486,9.09 6.102,8.704 6.566,8.233 6.881,7.678 7.194,7.122 7.352,6.446 7.352,5.649 7.352,3.911 6.687,2.535 5.359,1.521 4.031,0.507 2.245,0 0,0" />
          </g>
          <g
             transform="translate(407.6823,289.3485)"
             id="g3741">
            <path
               inkscape:connector-curvature="0"
               id="path3743"
               style="fill:#002f87;fill-opacity:1;fill-rule:nonzero;stroke:none"
               d="m 0,0 c -1.474,0 -2.91,0.242 -4.31,0.725 -1.4,0.482 -2.607,1.182 -3.622,2.1 l 1.123,1.666 c 1.063,-0.869 2.143,-1.521 3.242,-1.956 1.098,-0.434 2.275,-0.652 3.531,-0.652 1.52,0 2.733,0.308 3.639,0.924 0.906,0.615 1.358,1.49 1.358,2.625 0,0.531 -0.121,0.972 -0.362,1.322 C 4.357,7.104 4.001,7.412 3.53,7.678 3.06,7.943 2.468,8.178 1.756,8.384 1.044,8.588 0.217,8.8 -0.725,9.018 c -1.086,0.265 -2.028,0.53 -2.824,0.796 -0.797,0.266 -1.455,0.567 -1.974,0.906 -0.519,0.338 -0.906,0.754 -1.159,1.249 -0.254,0.494 -0.38,1.116 -0.38,1.865 0,0.941 0.187,1.774 0.561,2.499 0.374,0.724 0.881,1.322 1.522,1.792 0.638,0.471 1.387,0.827 2.245,1.069 0.856,0.241 1.768,0.362 2.734,0.362 1.448,0 2.764,-0.236 3.947,-0.706 1.183,-0.471 2.137,-1.093 2.861,-1.865 L 5.613,15.536 c -0.701,0.724 -1.551,1.268 -2.553,1.63 -1.002,0.362 -2.046,0.543 -3.132,0.543 -0.653,0 -1.256,-0.067 -1.812,-0.199 -0.555,-0.133 -1.044,-0.344 -1.467,-0.634 -0.421,-0.29 -0.753,-0.658 -0.995,-1.105 -0.242,-0.446 -0.362,-0.972 -0.362,-1.575 0,-0.507 0.084,-0.918 0.253,-1.231 0.169,-0.314 0.447,-0.586 0.833,-0.815 0.387,-0.23 0.875,-0.435 1.467,-0.616 C -1.563,11.354 -0.846,11.166 0,10.973 1.207,10.684 2.269,10.394 3.187,10.104 4.104,9.814 4.87,9.476 5.486,9.09 6.102,8.704 6.566,8.233 6.881,7.678 7.194,7.122 7.352,6.446 7.352,5.649 7.352,3.911 6.687,2.535 5.359,1.521 4.031,0.507 2.245,0 0,0" />
          </g>
          <g
             transform="translate(428.1618,290.6161)"
             id="g3745">
            <path
               inkscape:connector-curvature="0"
               id="path3747"
               style="fill:#002f87;fill-opacity:1;fill-rule:nonzero;stroke:none"
               d="m 0,0 c -0.145,-0.072 -0.356,-0.169 -0.634,-0.29 -0.277,-0.121 -0.597,-0.241 -0.96,-0.362 -0.361,-0.121 -0.772,-0.229 -1.23,-0.326 -0.459,-0.096 -0.943,-0.145 -1.449,-0.145 -0.532,0 -1.039,0.073 -1.521,0.218 -0.483,0.145 -0.905,0.367 -1.268,0.67 -0.362,0.301 -0.652,0.682 -0.869,1.14 -0.217,0.459 -0.326,0.99 -0.326,1.594 v 13.508 h -2.607 v 1.955 h 2.607 v 6.374 h 2.463 v -6.374 h 4.346 V 16.007 H -5.794 V 3.187 c 0.048,-0.701 0.289,-1.213 0.724,-1.539 0.434,-0.326 0.954,-0.489 1.557,-0.489 0.7,0 1.316,0.114 1.847,0.344 0.531,0.229 0.869,0.392 1.015,0.489 z" />
          </g>
          <path
             inkscape:connector-curvature="0"
             id="path3749"
             style="fill:#010102;fill-opacity:1;fill-rule:nonzero;stroke:none"
             d="m 355.591,277.167 h 0.758 v -7.577 h -0.758 z" />
          <g
             transform="translate(357.9655,275.1942)"
             id="g3751">
            <path
               inkscape:connector-curvature="0"
               id="path3753"
               style="fill:#010102;fill-opacity:1;fill-rule:nonzero;stroke:none"
               d="m 0,0 h 0.721 v -1.005 c 0.289,0.385 0.608,0.672 0.958,0.863 0.35,0.191 0.731,0.286 1.143,0.286 0.419,0 0.791,-0.106 1.116,-0.319 0.325,-0.213 0.564,-0.5 0.718,-0.861 0.155,-0.36 0.232,-0.922 0.232,-1.684 V -5.604 H 4.167 v 2.673 c 0,0.645 -0.026,1.077 -0.08,1.293 -0.084,0.37 -0.244,0.65 -0.482,0.837 -0.236,0.187 -0.545,0.28 -0.926,0.28 -0.437,0 -0.827,-0.144 -1.172,-0.432 C 1.161,-1.242 0.934,-1.599 0.824,-2.024 0.755,-2.303 0.721,-2.811 0.721,-3.549 V -5.604 H 0 Z" />
          </g>
          <g
             transform="translate(367.2165,274.581)"
             id="g3755">
            <path
               inkscape:connector-curvature="0"
               id="path3757"
               style="fill:#010102;fill-opacity:1;fill-rule:nonzero;stroke:none"
               d="m 0,0 -0.464,-0.479 c -0.386,0.375 -0.763,0.562 -1.131,0.562 -0.234,0 -0.434,-0.078 -0.601,-0.232 -0.167,-0.155 -0.25,-0.335 -0.25,-0.541 0,-0.182 0.068,-0.355 0.206,-0.52 0.137,-0.169 0.427,-0.366 0.867,-0.593 0.537,-0.278 0.901,-0.546 1.095,-0.803 0.188,-0.261 0.283,-0.555 0.283,-0.881 0,-0.46 -0.161,-0.85 -0.484,-1.169 -0.324,-0.32 -0.728,-0.479 -1.213,-0.479 -0.324,0 -0.632,0.07 -0.926,0.211 -0.294,0.14 -0.537,0.335 -0.73,0.582 l 0.453,0.515 c 0.369,-0.416 0.759,-0.623 1.172,-0.623 0.289,0 0.536,0.093 0.739,0.278 0.203,0.185 0.304,0.403 0.304,0.654 0,0.206 -0.067,0.39 -0.201,0.551 -0.135,0.158 -0.437,0.357 -0.909,0.598 -0.506,0.261 -0.85,0.518 -1.032,0.772 -0.183,0.254 -0.274,0.545 -0.274,0.871 0,0.426 0.146,0.779 0.436,1.061 0.291,0.282 0.658,0.422 1.101,0.422 C -1.042,0.757 -0.522,0.505 0,0" />
          </g>
          <g
             transform="translate(369.1227,277.2753)"
             id="g3759">
            <path
               inkscape:connector-curvature="0"
               id="path3761"
               style="fill:#010102;fill-opacity:1;fill-rule:nonzero;stroke:none"
               d="M 0,0 H 0.722 V -2.081 H 1.865 V -2.705 H 0.722 V -7.686 H 0 v 4.981 h -0.983 v 0.624 H 0 Z" />
          </g>
          <path
             inkscape:connector-curvature="0"
             id="path3763"
             style="fill:#010102;fill-opacity:1;fill-rule:nonzero;stroke:none"
             d="m 371.961,275.194 h 0.722 v -5.604 h -0.722 z m 0.358,2.308 c 0.164,0 0.304,-0.059 0.42,-0.175 0.116,-0.117 0.175,-0.258 0.175,-0.423 0,-0.161 -0.059,-0.301 -0.175,-0.417 -0.116,-0.117 -0.256,-0.175 -0.42,-0.175 -0.161,0 -0.3,0.058 -0.416,0.175 -0.116,0.116 -0.174,0.256 -0.174,0.417 0,0.165 0.058,0.306 0.174,0.423 0.116,0.116 0.255,0.175 0.416,0.175" />
          <g
             transform="translate(374.8093,277.2753)"
             id="g3765">
            <path
               inkscape:connector-curvature="0"
               id="path3767"
               style="fill:#010102;fill-opacity:1;fill-rule:nonzero;stroke:none"
               d="M 0,0 H 0.722 V -2.081 H 1.865 V -2.705 H 0.722 V -7.686 H 0 v 4.981 h -0.983 v 0.624 H 0 Z" />
          </g>
          <g
             transform="translate(377.6628,275.1942)"
             id="g3769">
            <path
               inkscape:connector-curvature="0"
               id="path3771"
               style="fill:#010102;fill-opacity:1;fill-rule:nonzero;stroke:none"
               d="m 0,0 h 0.721 v -2.617 c 0,-0.639 0.035,-1.078 0.103,-1.319 0.104,-0.343 0.3,-0.614 0.591,-0.814 0.29,-0.199 0.637,-0.298 1.039,-0.298 0.402,0 0.744,0.097 1.025,0.291 0.28,0.194 0.473,0.449 0.58,0.765 0.072,0.216 0.108,0.675 0.108,1.375 V 0 h 0.736 v -2.751 c 0,-0.772 -0.09,-1.354 -0.27,-1.746 C 4.453,-4.889 4.182,-5.195 3.819,-5.417 3.457,-5.638 3.003,-5.749 2.457,-5.749 1.911,-5.749 1.455,-5.638 1.089,-5.417 0.724,-5.195 0.45,-4.886 0.271,-4.489 0.09,-4.093 0,-3.496 0,-2.699 Z" />
          </g>
          <g
             transform="translate(384.7966,277.2753)"
             id="g3773">
            <path
               inkscape:connector-curvature="0"
               id="path3775"
               style="fill:#010102;fill-opacity:1;fill-rule:nonzero;stroke:none"
               d="M 0,0 H 0.722 V -2.081 H 1.865 V -2.705 H 0.722 V -7.686 H 0 v 4.981 h -0.983 v 0.624 H 0 Z" />
          </g>
          <g
             transform="translate(390.3942,274.6327)"
             id="g3777">
            <path
               inkscape:connector-curvature="0"
               id="path3779"
               style="fill:#010102;fill-opacity:1;fill-rule:nonzero;stroke:none"
               d="m 0,0 c -0.6,0 -1.115,-0.222 -1.546,-0.665 -0.431,-0.442 -0.646,-0.978 -0.646,-1.606 0,-0.406 0.098,-0.784 0.295,-1.134 0.196,-0.35 0.461,-0.621 0.795,-0.811 0.334,-0.191 0.702,-0.286 1.102,-0.286 0.399,0 0.767,0.095 1.101,0.286 0.334,0.19 0.599,0.461 0.795,0.811 0.197,0.35 0.295,0.728 0.295,1.134 0,0.628 -0.215,1.164 -0.648,1.606 C 1.11,-0.222 0.596,0 0,0 m 0.002,0.706 c 0.863,0 1.579,-0.313 2.146,-0.938 0.517,-0.57 0.775,-1.245 0.775,-2.024 0,-0.783 -0.273,-1.468 -0.819,-2.053 -0.544,-0.586 -1.246,-0.878 -2.102,-0.878 -0.859,0 -1.563,0.292 -2.107,0.878 -0.546,0.585 -0.819,1.27 -0.819,2.053 0,0.776 0.258,1.449 0.775,2.019 0.567,0.628 1.285,0.943 2.151,0.943" />
          </g>
          <g
             transform="translate(397.695,269.5898)"
             id="g3781">
            <path
               inkscape:connector-curvature="0"
               id="path3783"
               style="fill:#010102;fill-opacity:1;fill-rule:nonzero;stroke:none"
               d="M 0,0 V 7.577 H 0.165 L 5.208,1.769 V 7.577 H 5.955 V 0 H 5.785 L 0.783,5.738 V 0 Z" />
          </g>
          <g
             transform="translate(408.0768,274.643)"
             id="g3785">
            <path
               inkscape:connector-curvature="0"
               id="path3787"
               style="fill:#010102;fill-opacity:1;fill-rule:nonzero;stroke:none"
               d="m 0,0 c -0.401,0 -0.771,-0.099 -1.111,-0.296 -0.339,-0.197 -0.61,-0.474 -0.81,-0.831 -0.201,-0.357 -0.302,-0.734 -0.302,-1.132 0,-0.394 0.102,-0.772 0.304,-1.132 0.202,-0.36 0.475,-0.64 0.815,-0.841 0.342,-0.201 0.708,-0.301 1.099,-0.301 0.395,0 0.769,0.099 1.122,0.299 0.353,0.198 0.625,0.468 0.816,0.807 0.19,0.34 0.285,0.722 0.285,1.148 0,0.648 -0.214,1.19 -0.641,1.626 C 1.15,-0.218 0.625,0 0,0 M 2.883,0.551 V -5.053 H 2.172 V -4.09 C 1.869,-4.458 1.53,-4.734 1.154,-4.919 0.778,-5.104 0.367,-5.197 -0.079,-5.197 c -0.794,0 -1.471,0.287 -2.032,0.863 -0.562,0.575 -0.843,1.274 -0.843,2.098 0,0.807 0.283,1.498 0.85,2.071 0.567,0.574 1.249,0.86 2.045,0.86 0.46,0 0.876,-0.097 1.249,-0.293 0.372,-0.196 0.7,-0.49 0.982,-0.881 v 1.03 z" />
          </g>
          <g
             transform="translate(418.0212,274.0297)"
             id="g3789">
            <path
               inkscape:connector-curvature="0"
               id="path3791"
               style="fill:#010102;fill-opacity:1;fill-rule:nonzero;stroke:none"
               d="m 0,0 -0.572,-0.355 c -0.493,0.656 -1.168,0.983 -2.022,0.983 -0.682,0 -1.25,-0.219 -1.7,-0.658 -0.451,-0.439 -0.677,-0.972 -0.677,-1.6 0,-0.408 0.104,-0.792 0.312,-1.153 0.207,-0.36 0.492,-0.639 0.853,-0.838 0.363,-0.199 0.768,-0.299 1.217,-0.299 0.823,0 1.495,0.328 2.017,0.984 L 0,-3.312 c -0.268,-0.403 -0.628,-0.716 -1.079,-0.938 -0.452,-0.223 -0.966,-0.334 -1.543,-0.334 -0.886,0 -1.621,0.281 -2.204,0.845 -0.584,0.563 -0.876,1.248 -0.876,2.055 0,0.542 0.137,1.046 0.409,1.512 0.273,0.465 0.648,0.828 1.126,1.089 0.477,0.261 1.011,0.392 1.602,0.392 0.371,0 0.728,-0.057 1.074,-0.17 C -1.146,1.025 -0.854,0.877 -0.613,0.696 -0.373,0.514 -0.168,0.282 0,0" />
          </g>
          <path
             inkscape:connector-curvature="0"
             id="path3793"
             style="fill:#010102;fill-opacity:1;fill-rule:nonzero;stroke:none"
             d="m 419.299,275.194 h 0.722 v -5.604 h -0.722 z m 0.358,2.308 c 0.164,0 0.304,-0.059 0.42,-0.175 0.116,-0.117 0.175,-0.258 0.175,-0.423 0,-0.161 -0.059,-0.301 -0.175,-0.417 -0.116,-0.117 -0.256,-0.175 -0.42,-0.175 -0.161,0 -0.3,0.058 -0.416,0.175 -0.116,0.116 -0.174,0.256 -0.174,0.417 0,0.165 0.058,0.306 0.174,0.423 0.116,0.116 0.255,0.175 0.416,0.175" />
          <g
             transform="translate(424.1696,274.6327)"
             id="g3795">
            <path
               inkscape:connector-curvature="0"
               id="path3797"
               style="fill:#010102;fill-opacity:1;fill-rule:nonzero;stroke:none"
               d="m 0,0 c -0.6,0 -1.115,-0.222 -1.546,-0.665 -0.431,-0.442 -0.646,-0.978 -0.646,-1.606 0,-0.406 0.098,-0.784 0.295,-1.134 0.196,-0.35 0.461,-0.621 0.795,-0.811 0.334,-0.191 0.702,-0.286 1.102,-0.286 0.399,0 0.767,0.095 1.101,0.286 0.334,0.19 0.599,0.461 0.795,0.811 0.197,0.35 0.295,0.728 0.295,1.134 0,0.628 -0.215,1.164 -0.648,1.606 C 1.11,-0.222 0.596,0 0,0 m 0.002,0.706 c 0.863,0 1.579,-0.313 2.146,-0.938 0.517,-0.57 0.775,-1.245 0.775,-2.024 0,-0.783 -0.273,-1.468 -0.819,-2.053 -0.544,-0.586 -1.246,-0.878 -2.102,-0.878 -0.859,0 -1.563,0.292 -2.107,0.878 -0.546,0.585 -0.819,1.27 -0.819,2.053 0,0.776 0.258,1.449 0.775,2.019 0.567,0.628 1.285,0.943 2.151,0.943" />
          </g>
          <g
             transform="translate(428.4265,275.1942)"
             id="g3799">
            <path
               inkscape:connector-curvature="0"
               id="path3801"
               style="fill:#010102;fill-opacity:1;fill-rule:nonzero;stroke:none"
               d="m 0,0 h 0.721 v -1.005 c 0.289,0.385 0.608,0.672 0.958,0.863 0.35,0.191 0.731,0.286 1.143,0.286 0.419,0 0.791,-0.106 1.116,-0.319 0.325,-0.213 0.564,-0.5 0.718,-0.861 0.155,-0.36 0.232,-0.922 0.232,-1.684 V -5.604 H 4.167 v 2.673 c 0,0.645 -0.026,1.077 -0.08,1.293 -0.084,0.37 -0.244,0.65 -0.482,0.837 -0.236,0.187 -0.545,0.28 -0.926,0.28 -0.437,0 -0.827,-0.144 -1.172,-0.432 C 1.161,-1.242 0.934,-1.599 0.824,-2.024 0.755,-2.303 0.721,-2.811 0.721,-3.549 V -5.604 H 0 Z" />
          </g>
          <g
             transform="translate(437.5612,274.643)"
             id="g3803">
            <path
               inkscape:connector-curvature="0"
               id="path3805"
               style="fill:#010102;fill-opacity:1;fill-rule:nonzero;stroke:none"
               d="m 0,0 c -0.401,0 -0.771,-0.099 -1.111,-0.296 -0.339,-0.197 -0.61,-0.474 -0.81,-0.831 -0.201,-0.357 -0.302,-0.734 -0.302,-1.132 0,-0.394 0.102,-0.772 0.304,-1.132 0.202,-0.36 0.475,-0.64 0.815,-0.841 0.342,-0.201 0.708,-0.301 1.099,-0.301 0.395,0 0.769,0.099 1.122,0.299 0.353,0.198 0.625,0.468 0.816,0.807 0.19,0.34 0.285,0.722 0.285,1.148 0,0.648 -0.214,1.19 -0.641,1.626 C 1.15,-0.218 0.625,0 0,0 M 2.883,0.551 V -5.053 H 2.172 V -4.09 C 1.869,-4.458 1.53,-4.734 1.154,-4.919 0.778,-5.104 0.367,-5.197 -0.079,-5.197 c -0.794,0 -1.471,0.287 -2.032,0.863 -0.562,0.575 -0.843,1.274 -0.843,2.098 0,0.807 0.283,1.498 0.85,2.071 0.567,0.574 1.249,0.86 2.045,0.86 0.46,0 0.876,-0.097 1.249,-0.293 0.372,-0.196 0.7,-0.49 0.982,-0.881 v 1.03 z" />
          </g>
          <path
             inkscape:connector-curvature="0"
             id="path3807"
             style="fill:#010102;fill-opacity:1;fill-rule:nonzero;stroke:none"
             d="m 441.958,277.357 h 0.722 v -7.768 h -0.722 z" />
          <g
             transform="translate(449.8102,274.643)"
             id="g3809">
            <path
               inkscape:connector-curvature="0"
               id="path3811"
               style="fill:#010102;fill-opacity:1;fill-rule:nonzero;stroke:none"
               d="m 0,0 c -0.401,0 -0.771,-0.099 -1.111,-0.296 -0.34,-0.197 -0.61,-0.474 -0.811,-0.831 -0.2,-0.357 -0.301,-0.734 -0.301,-1.132 0,-0.394 0.102,-0.772 0.304,-1.132 0.202,-0.36 0.474,-0.64 0.815,-0.841 0.341,-0.201 0.708,-0.301 1.099,-0.301 0.395,0 0.768,0.099 1.121,0.299 0.354,0.198 0.625,0.468 0.816,0.807 0.19,0.34 0.286,0.722 0.286,1.148 0,0.648 -0.214,1.19 -0.641,1.626 C 1.149,-0.218 0.624,0 0,0 M 2.882,2.714 V -5.053 H 2.171 V -4.09 C 1.869,-4.458 1.53,-4.734 1.153,-4.919 0.777,-5.104 0.366,-5.197 -0.08,-5.197 c -0.793,0 -1.471,0.287 -2.032,0.863 -0.562,0.575 -0.842,1.274 -0.842,2.098 0,0.807 0.283,1.498 0.85,2.071 0.566,0.574 1.248,0.86 2.044,0.86 0.46,0 0.877,-0.097 1.249,-0.293 0.373,-0.196 0.701,-0.49 0.982,-0.881 v 3.193 z" />
          </g>
          <g
             transform="translate(459.0436,272.9584)"
             id="g3813">
            <path
               inkscape:connector-curvature="0"
               id="path3815"
               style="fill:#010102;fill-opacity:1;fill-rule:nonzero;stroke:none"
               d="m 0,0 c -0.096,0.385 -0.236,0.692 -0.42,0.922 -0.184,0.23 -0.428,0.415 -0.729,0.557 -0.303,0.14 -0.622,0.21 -0.955,0.21 -0.55,0 -1.023,-0.176 -1.418,-0.53 C -3.811,0.901 -4.029,0.515 -4.177,0 Z m 0,-1.509 0.608,-0.32 C 0.409,-2.22 0.179,-2.536 -0.083,-2.776 -0.344,-3.017 -0.638,-3.2 -0.964,-3.325 -1.291,-3.45 -1.66,-3.513 -2.073,-3.513 c -0.914,0 -1.629,0.3 -2.145,0.899 -0.515,0.599 -0.773,1.277 -0.773,2.032 0,0.711 0.219,1.345 0.655,1.901 0.553,0.707 1.294,1.061 2.222,1.061 0.956,0 1.718,-0.362 2.289,-1.087 0.405,-0.512 0.612,-1.15 0.619,-1.916 h -5.043 c 0.014,-0.651 0.222,-1.185 0.624,-1.601 0.402,-0.416 0.898,-0.625 1.49,-0.625 0.285,0 0.563,0.05 0.833,0.149 0.27,0.099 0.499,0.231 0.689,0.395 0.189,0.165 0.393,0.43 0.613,0.796" />
          </g>
          <g
             transform="translate(421.9157,258.3417)"
             id="g3817">
            <path
               inkscape:connector-curvature="0"
               id="path3819"
               style="fill:#010102;fill-opacity:1;fill-rule:nonzero;stroke:none"
               d="m 0,0 0.645,0.387 c 0.453,-0.835 0.976,-1.252 1.571,-1.252 0.254,0 0.492,0.059 0.716,0.178 0.222,0.118 0.392,0.277 0.509,0.476 0.117,0.199 0.175,0.41 0.175,0.634 0,0.254 -0.086,0.503 -0.258,0.746 C 3.122,1.506 2.689,1.911 2.061,2.385 1.429,2.862 1.036,3.208 0.881,3.42 0.613,3.778 0.479,4.164 0.479,4.58 c 0,0.329 0.08,0.629 0.238,0.901 0.157,0.271 0.38,0.485 0.667,0.641 C 1.67,6.278 1.981,6.356 2.318,6.356 2.676,6.356 3.01,6.268 3.32,6.091 3.631,5.915 3.96,5.589 4.307,5.115 L 3.688,4.646 C 3.403,5.024 3.16,5.273 2.96,5.394 2.759,5.514 2.54,5.574 2.303,5.574 1.997,5.574 1.747,5.481 1.554,5.295 1.359,5.11 1.263,4.882 1.263,4.61 1.263,4.446 1.297,4.286 1.365,4.131 1.434,3.977 1.56,3.809 1.741,3.626 1.841,3.53 2.167,3.278 2.72,2.869 3.376,2.385 3.826,1.954 4.069,1.577 4.313,1.199 4.436,0.819 4.436,0.438 4.436,-0.111 4.227,-0.589 3.81,-0.994 3.393,-1.399 2.885,-1.602 2.287,-1.602 1.827,-1.602 1.41,-1.479 1.036,-1.233 0.661,-0.988 0.316,-0.577 0,0" />
          </g>
          <g
             transform="translate(430.5358,261.9838)"
             id="g3821">
            <path
               inkscape:connector-curvature="0"
               id="path3823"
               style="fill:#010102;fill-opacity:1;fill-rule:nonzero;stroke:none"
               d="m 0,0 c -0.401,0 -0.771,-0.099 -1.111,-0.296 -0.339,-0.197 -0.61,-0.474 -0.81,-0.831 -0.201,-0.357 -0.302,-0.734 -0.302,-1.132 0,-0.394 0.102,-0.772 0.304,-1.132 0.202,-0.36 0.475,-0.64 0.815,-0.841 0.342,-0.201 0.708,-0.301 1.099,-0.301 0.395,0 0.769,0.099 1.122,0.299 0.353,0.198 0.625,0.468 0.816,0.807 0.19,0.34 0.285,0.722 0.285,1.148 0,0.648 -0.214,1.19 -0.641,1.626 C 1.15,-0.218 0.625,0 0,0 M 2.883,0.551 V -5.053 H 2.172 V -4.09 C 1.869,-4.458 1.53,-4.734 1.154,-4.919 0.778,-5.104 0.367,-5.197 -0.079,-5.197 c -0.794,0 -1.471,0.287 -2.032,0.863 -0.562,0.575 -0.843,1.274 -0.843,2.098 0,0.807 0.283,1.498 0.85,2.071 0.567,0.574 1.249,0.86 2.045,0.86 0.46,0 0.876,-0.097 1.249,-0.293 0.372,-0.196 0.7,-0.49 0.982,-0.881 v 1.03 z" />
          </g>
          <path
             inkscape:connector-curvature="0"
             id="path3825"
             style="fill:#010102;fill-opacity:1;fill-rule:nonzero;stroke:none"
             d="m 434.932,264.698 h 0.722 v -7.768 h -0.722 z" />
          <g
             transform="translate(437.0602,262.5351)"
             id="g3827">
            <path
               inkscape:connector-curvature="0"
               id="path3829"
               style="fill:#010102;fill-opacity:1;fill-rule:nonzero;stroke:none"
               d="m 0,0 h 0.721 v -2.617 c 0,-0.639 0.035,-1.078 0.103,-1.319 0.104,-0.343 0.3,-0.614 0.591,-0.814 0.29,-0.199 0.637,-0.298 1.039,-0.298 0.402,0 0.744,0.097 1.025,0.291 0.28,0.194 0.473,0.449 0.58,0.765 0.072,0.216 0.108,0.675 0.108,1.375 V 0 h 0.736 v -2.751 c 0,-0.772 -0.09,-1.354 -0.27,-1.746 C 4.453,-4.889 4.182,-5.195 3.819,-5.417 3.457,-5.638 3.003,-5.749 2.457,-5.749 1.911,-5.749 1.455,-5.638 1.089,-5.417 0.724,-5.195 0.45,-4.886 0.271,-4.489 0.09,-4.093 0,-3.496 0,-2.699 Z" />
          </g>
          <g
             transform="translate(446.278,261.9838)"
             id="g3831">
            <path
               inkscape:connector-curvature="0"
               id="path3833"
               style="fill:#010102;fill-opacity:1;fill-rule:nonzero;stroke:none"
               d="m 0,0 c -0.401,0 -0.771,-0.099 -1.111,-0.296 -0.34,-0.197 -0.61,-0.474 -0.811,-0.831 -0.2,-0.357 -0.301,-0.734 -0.301,-1.132 0,-0.394 0.102,-0.772 0.304,-1.132 0.202,-0.36 0.474,-0.64 0.815,-0.841 0.341,-0.201 0.708,-0.301 1.099,-0.301 0.395,0 0.768,0.099 1.121,0.299 0.354,0.198 0.625,0.468 0.816,0.807 0.19,0.34 0.286,0.722 0.286,1.148 0,0.648 -0.214,1.19 -0.641,1.626 C 1.149,-0.218 0.624,0 0,0 M 2.882,2.714 V -5.053 H 2.171 V -4.09 C 1.869,-4.458 1.53,-4.734 1.153,-4.919 0.777,-5.104 0.366,-5.197 -0.08,-5.197 c -0.793,0 -1.471,0.287 -2.032,0.863 -0.562,0.575 -0.842,1.274 -0.842,2.098 0,0.807 0.283,1.498 0.85,2.071 0.566,0.574 1.248,0.86 2.044,0.86 0.46,0 0.877,-0.097 1.249,-0.293 0.373,-0.196 0.701,-0.49 0.982,-0.881 v 3.193 z" />
          </g>
          <g
             transform="translate(412.111,262.5351)"
             id="g3835">
            <path
               inkscape:connector-curvature="0"
               id="path3837"
               style="fill:#010102;fill-opacity:1;fill-rule:nonzero;stroke:none"
               d="M 0,0 H 0.762 L 2.688,-4.316 4.559,0 H 5.326 L 1.982,-7.655 H 1.221 L 2.3,-5.18 Z" />
          </g>
          <g
             transform="translate(458.2927,260.2992)"
             id="g3839">
            <path
               inkscape:connector-curvature="0"
               id="path3841"
               style="fill:#010102;fill-opacity:1;fill-rule:nonzero;stroke:none"
               d="m 0,0 c -0.096,0.385 -0.236,0.692 -0.42,0.922 -0.184,0.23 -0.428,0.415 -0.729,0.557 -0.303,0.14 -0.622,0.21 -0.955,0.21 -0.55,0 -1.023,-0.176 -1.418,-0.53 C -3.811,0.901 -4.029,0.515 -4.177,0 Z m 0,-1.509 0.608,-0.32 C 0.409,-2.22 0.179,-2.536 -0.083,-2.776 -0.344,-3.017 -0.638,-3.2 -0.964,-3.325 -1.291,-3.45 -1.66,-3.513 -2.073,-3.513 c -0.914,0 -1.629,0.3 -2.145,0.899 -0.515,0.599 -0.773,1.277 -0.773,2.032 0,0.711 0.219,1.345 0.655,1.901 0.553,0.707 1.294,1.061 2.222,1.061 0.956,0 1.718,-0.362 2.289,-1.087 0.405,-0.512 0.612,-1.15 0.619,-1.916 h -5.043 c 0.014,-0.651 0.222,-1.185 0.624,-1.601 0.402,-0.416 0.898,-0.625 1.49,-0.625 0.285,0 0.563,0.05 0.833,0.149 0.27,0.099 0.499,0.231 0.689,0.395 0.189,0.165 0.393,0.43 0.613,0.796" />
          </g>
          <g
             transform="translate(460.4304,262.5351)"
             id="g3843">
            <path
               inkscape:connector-curvature="0"
               id="path3845"
               style="fill:#010102;fill-opacity:1;fill-rule:nonzero;stroke:none"
               d="m 0,0 h 0.721 v -1.005 c 0.289,0.385 0.608,0.672 0.958,0.863 0.35,0.191 0.731,0.286 1.143,0.286 0.419,0 0.791,-0.106 1.116,-0.319 0.325,-0.213 0.564,-0.5 0.718,-0.861 0.155,-0.36 0.232,-0.922 0.232,-1.684 V -5.604 H 4.167 v 2.673 c 0,0.645 -0.026,1.077 -0.08,1.293 -0.084,0.37 -0.244,0.65 -0.482,0.837 -0.236,0.187 -0.545,0.28 -0.926,0.28 -0.437,0 -0.827,-0.144 -1.172,-0.432 C 1.161,-1.242 0.934,-1.599 0.824,-2.024 0.755,-2.303 0.721,-2.811 0.721,-3.549 V -5.604 H 0 Z" />
          </g>
          <g
             transform="translate(474.5026,260.2992)"
             id="g3847">
            <path
               inkscape:connector-curvature="0"
               id="path3849"
               style="fill:#010102;fill-opacity:1;fill-rule:nonzero;stroke:none"
               d="m 0,0 c -0.096,0.385 -0.236,0.692 -0.42,0.922 -0.184,0.23 -0.428,0.415 -0.729,0.557 -0.303,0.14 -0.622,0.21 -0.955,0.21 -0.55,0 -1.023,-0.176 -1.418,-0.53 C -3.811,0.901 -4.029,0.515 -4.177,0 Z m 0,-1.509 0.608,-0.32 C 0.409,-2.22 0.179,-2.536 -0.083,-2.776 -0.344,-3.017 -0.638,-3.2 -0.964,-3.325 -1.291,-3.45 -1.66,-3.513 -2.073,-3.513 c -0.914,0 -1.629,0.3 -2.145,0.899 -0.515,0.599 -0.773,1.277 -0.773,2.032 0,0.711 0.219,1.345 0.655,1.901 0.553,0.707 1.294,1.061 2.222,1.061 0.956,0 1.718,-0.362 2.289,-1.087 0.405,-0.512 0.612,-1.15 0.619,-1.916 h -5.043 c 0.014,-0.651 0.222,-1.185 0.624,-1.601 0.402,-0.416 0.898,-0.625 1.49,-0.625 0.285,0 0.563,0.05 0.833,0.149 0.27,0.099 0.499,0.231 0.689,0.395 0.189,0.165 0.393,0.43 0.613,0.796" />
          </g>
          <path
             inkscape:connector-curvature="0"
             id="path3851"
             style="fill:#010102;fill-opacity:1;fill-rule:nonzero;stroke:none"
             d="m 476.533,264.698 h 0.722 v -7.768 h -0.722 z" />
          <g
             transform="translate(481.0397,263.766)"
             id="g3853">
            <path
               inkscape:connector-curvature="0"
               id="path3855"
               style="fill:#010102;fill-opacity:1;fill-rule:nonzero;stroke:none"
               d="M 0,0 V 0.742 H 4.151 V 0 H 2.462 V -6.835 H 1.689 V 0 Z" />
          </g>
          <g
             transform="translate(485.5778,262.5351)"
             id="g3857">
            <path
               inkscape:connector-curvature="0"
               id="path3859"
               style="fill:#010102;fill-opacity:1;fill-rule:nonzero;stroke:none"
               d="m 0,0 h 0.737 v -0.819 c 0.22,0.322 0.451,0.564 0.696,0.723 0.243,0.16 0.497,0.24 0.761,0.24 0.2,0 0.412,-0.063 0.639,-0.19 L 2.457,-0.654 c -0.15,0.065 -0.278,0.097 -0.381,0.097 -0.24,0 -0.472,-0.098 -0.695,-0.296 C 1.157,-1.05 0.987,-1.356 0.871,-1.772 0.781,-2.091 0.737,-2.737 0.737,-3.709 V -5.604 H 0 Z" />
          </g>
          <g
             transform="translate(491.7253,261.9838)"
             id="g3861">
            <path
               inkscape:connector-curvature="0"
               id="path3863"
               style="fill:#010102;fill-opacity:1;fill-rule:nonzero;stroke:none"
               d="m 0,0 c -0.401,0 -0.771,-0.099 -1.111,-0.296 -0.339,-0.197 -0.61,-0.474 -0.81,-0.831 -0.201,-0.357 -0.302,-0.734 -0.302,-1.132 0,-0.394 0.102,-0.772 0.304,-1.132 0.202,-0.36 0.475,-0.64 0.815,-0.841 0.342,-0.201 0.708,-0.301 1.099,-0.301 0.395,0 0.769,0.099 1.122,0.299 0.353,0.198 0.625,0.468 0.816,0.807 0.19,0.34 0.285,0.722 0.285,1.148 0,0.648 -0.214,1.19 -0.641,1.626 C 1.15,-0.218 0.625,0 0,0 M 2.883,0.551 V -5.053 H 2.172 V -4.09 C 1.869,-4.458 1.53,-4.734 1.154,-4.919 0.778,-5.104 0.367,-5.197 -0.079,-5.197 c -0.794,0 -1.471,0.287 -2.032,0.863 -0.562,0.575 -0.843,1.274 -0.843,2.098 0,0.807 0.283,1.498 0.85,2.071 0.567,0.574 1.249,0.86 2.045,0.86 0.46,0 0.876,-0.097 1.249,-0.293 0.372,-0.196 0.7,-0.49 0.982,-0.881 v 1.03 z" />
          </g>
          <g
             transform="translate(499.1608,257.4818)"
             id="g3865">
            <path
               inkscape:connector-curvature="0"
               id="path3867"
               style="fill:#010102;fill-opacity:1;fill-rule:nonzero;stroke:none"
               d="m 0,0 c 0.401,0 0.771,0.099 1.11,0.296 0.339,0.198 0.609,0.475 0.81,0.832 0.2,0.357 0.3,0.735 0.3,1.133 C 2.22,2.66 2.119,3.039 1.917,3.399 1.715,3.76 1.443,4.041 1.103,4.242 0.762,4.443 0.397,4.543 0.011,4.543 -0.384,4.543 -0.758,4.443 -1.112,4.242 -1.467,4.041 -1.739,3.771 -1.93,3.431 -2.12,3.09 -2.215,2.708 -2.215,2.282 -2.215,1.633 -2.002,1.09 -1.575,0.654 -1.148,0.218 -0.623,0 0,0 m -2.885,-0.551 v 7.767 h 0.722 V 4.09 c 0.302,0.37 0.64,0.648 1.014,0.832 0.374,0.183 0.783,0.275 1.229,0.275 0.793,0 1.47,-0.287 2.03,-0.863 C 2.671,3.759 2.951,3.061 2.951,2.241 2.951,1.43 2.669,0.738 2.103,0.165 1.536,-0.409 0.855,-0.695 0.06,-0.695 c -0.456,0 -0.87,0.097 -1.241,0.293 -0.37,0.196 -0.698,0.489 -0.982,0.881 v -1.03 z" />
          </g>
          <g
             transform="translate(506.1276,261.9838)"
             id="g3869">
            <path
               inkscape:connector-curvature="0"
               id="path3871"
               style="fill:#010102;fill-opacity:1;fill-rule:nonzero;stroke:none"
               d="m 0,0 c -0.401,0 -0.771,-0.099 -1.111,-0.296 -0.339,-0.197 -0.61,-0.474 -0.81,-0.831 -0.201,-0.357 -0.302,-0.734 -0.302,-1.132 0,-0.394 0.102,-0.772 0.304,-1.132 0.202,-0.36 0.475,-0.64 0.815,-0.841 0.342,-0.201 0.708,-0.301 1.099,-0.301 0.395,0 0.769,0.099 1.122,0.299 0.353,0.198 0.625,0.468 0.816,0.807 0.19,0.34 0.285,0.722 0.285,1.148 0,0.648 -0.214,1.19 -0.641,1.626 C 1.15,-0.218 0.625,0 0,0 M 2.883,0.551 V -5.053 H 2.172 V -4.09 C 1.869,-4.458 1.53,-4.734 1.154,-4.919 0.778,-5.104 0.367,-5.197 -0.079,-5.197 c -0.794,0 -1.471,0.287 -2.032,0.863 -0.562,0.575 -0.843,1.274 -0.843,2.098 0,0.807 0.283,1.498 0.85,2.071 0.567,0.574 1.249,0.86 2.045,0.86 0.46,0 0.876,-0.097 1.249,-0.293 0.372,-0.196 0.7,-0.49 0.982,-0.881 v 1.03 z" />
          </g>
          <g
             transform="translate(510.9001,264.8427)"
             id="g3873">
            <path
               inkscape:connector-curvature="0"
               id="path3875"
               style="fill:#010102;fill-opacity:1;fill-rule:nonzero;stroke:none"
               d="m 0,0 c 0.165,0 0.305,-0.059 0.42,-0.175 0.115,-0.117 0.173,-0.258 0.173,-0.423 0,-0.161 -0.058,-0.3 -0.173,-0.417 C 0.305,-1.132 0.165,-1.19 0,-1.19 c -0.165,0 -0.305,0.058 -0.42,0.175 -0.115,0.117 -0.172,0.256 -0.172,0.417 0,0.165 0.057,0.306 0.172,0.423 C -0.305,-0.059 -0.165,0 0,0 m -0.355,-2.308 h 0.731 v -6.449 c 0,-0.471 -0.085,-0.813 -0.255,-1.028 -0.17,-0.214 -0.402,-0.321 -0.698,-0.321 -0.243,0 -0.519,0.058 -0.824,0.175 v 0.649 c 0.192,-0.1 0.366,-0.15 0.52,-0.15 0.196,0 0.342,0.081 0.439,0.243 0.057,0.103 0.087,0.317 0.087,0.643 z" />
          </g>
          <g
             transform="translate(515.4255,261.9735)"
             id="g3877">
            <path
               inkscape:connector-curvature="0"
               id="path3879"
               style="fill:#010102;fill-opacity:1;fill-rule:nonzero;stroke:none"
               d="m 0,0 c -0.6,0 -1.115,-0.222 -1.546,-0.665 -0.431,-0.442 -0.646,-0.978 -0.646,-1.606 0,-0.406 0.098,-0.784 0.295,-1.134 0.196,-0.35 0.461,-0.621 0.795,-0.811 0.334,-0.191 0.702,-0.286 1.102,-0.286 0.399,0 0.767,0.095 1.101,0.286 0.334,0.19 0.599,0.461 0.795,0.811 0.197,0.35 0.295,0.728 0.295,1.134 0,0.628 -0.215,1.164 -0.648,1.606 C 1.11,-0.222 0.596,0 0,0 m 0.002,0.706 c 0.863,0 1.579,-0.313 2.146,-0.938 0.517,-0.57 0.775,-1.245 0.775,-2.024 0,-0.783 -0.273,-1.468 -0.819,-2.053 -0.544,-0.586 -1.246,-0.878 -2.102,-0.878 -0.859,0 -1.563,0.292 -2.107,0.878 -0.546,0.585 -0.819,1.27 -0.819,2.053 0,0.776 0.258,1.449 0.775,2.019 0.567,0.628 1.285,0.943 2.151,0.943" />
          </g>
          <g
             transform="translate(347.8976,278.5454)"
             id="g3881">
            <path
               inkscape:connector-curvature="0"
               id="path3883"
               style="fill:#002f87;fill-opacity:1;fill-rule:nonzero;stroke:none"
               d="M 0,0 C -15.867,9.669 -21.95,31.774 -10.464,46.989 -4.988,54.242 3.507,59.131 12.759,57.578 21.74,56.07 29.884,50.181 33.647,41.852 34.523,39.915 40.139,41.7 39.376,43.387 30.546,62.929 4.72,66.005 -10.657,52.601 -18.6,45.677 -23.457,35.122 -22.274,24.514 -21.052,13.56 -13.905,2.956 -4.57,-2.733 -3.015,-3.68 2.279,-1.388 0,0" />
          </g>
          <g
             transform="translate(355.5905,258.3619)"
             id="g3885">
            <path
               inkscape:connector-curvature="0"
               id="path3887"
               style="fill:#010102;fill-opacity:1;fill-rule:nonzero;stroke:none"
               d="m 0,0 0.645,0.387 c 0.453,-0.835 0.976,-1.252 1.571,-1.252 0.254,0 0.492,0.059 0.716,0.178 0.222,0.118 0.392,0.277 0.509,0.476 0.117,0.199 0.175,0.41 0.175,0.634 0,0.254 -0.086,0.503 -0.258,0.746 C 3.122,1.506 2.689,1.911 2.061,2.385 1.429,2.862 1.036,3.208 0.881,3.42 0.613,3.778 0.479,4.164 0.479,4.58 c 0,0.329 0.08,0.629 0.238,0.901 0.157,0.271 0.38,0.485 0.667,0.641 C 1.67,6.278 1.981,6.356 2.318,6.356 2.676,6.356 3.01,6.268 3.32,6.091 3.631,5.915 3.96,5.589 4.307,5.115 L 3.688,4.646 C 3.403,5.024 3.16,5.273 2.96,5.394 2.759,5.514 2.54,5.574 2.303,5.574 1.997,5.574 1.747,5.481 1.554,5.295 1.359,5.11 1.263,4.882 1.263,4.61 1.263,4.446 1.297,4.286 1.365,4.131 1.434,3.977 1.56,3.809 1.741,3.626 1.841,3.53 2.167,3.278 2.72,2.869 3.376,2.385 3.826,1.954 4.069,1.577 4.313,1.199 4.436,0.819 4.436,0.438 4.436,-0.111 4.227,-0.589 3.81,-0.994 3.393,-1.399 2.885,-1.602 2.287,-1.602 1.827,-1.602 1.41,-1.479 1.036,-1.233 0.661,-0.988 0.316,-0.577 0,0" />
          </g>
          <g
             transform="translate(366.2272,260.3194)"
             id="g3889">
            <path
               inkscape:connector-curvature="0"
               id="path3891"
               style="fill:#010102;fill-opacity:1;fill-rule:nonzero;stroke:none"
               d="m 0,0 c -0.096,0.385 -0.236,0.692 -0.42,0.922 -0.184,0.23 -0.428,0.415 -0.729,0.557 -0.303,0.14 -0.622,0.21 -0.955,0.21 -0.55,0 -1.023,-0.176 -1.418,-0.53 C -3.811,0.901 -4.029,0.515 -4.177,0 Z m 0,-1.509 0.608,-0.32 C 0.409,-2.22 0.179,-2.536 -0.083,-2.776 -0.344,-3.017 -0.638,-3.2 -0.964,-3.325 -1.291,-3.45 -1.66,-3.513 -2.073,-3.513 c -0.914,0 -1.629,0.3 -2.145,0.899 -0.515,0.599 -0.773,1.277 -0.773,2.032 0,0.711 0.219,1.345 0.655,1.901 0.553,0.707 1.294,1.061 2.222,1.061 0.956,0 1.718,-0.362 2.289,-1.087 0.405,-0.512 0.612,-1.15 0.619,-1.916 h -5.043 c 0.014,-0.651 0.222,-1.185 0.624,-1.601 0.402,-0.416 0.898,-0.625 1.49,-0.625 0.285,0 0.563,0.05 0.833,0.149 0.27,0.099 0.499,0.231 0.689,0.395 0.189,0.165 0.393,0.43 0.613,0.796" />
          </g>
          <g
             transform="translate(371.07,262.004)"
             id="g3893">
            <path
               inkscape:connector-curvature="0"
               id="path3895"
               style="fill:#010102;fill-opacity:1;fill-rule:nonzero;stroke:none"
               d="m 0,0 c -0.408,0 -0.788,-0.099 -1.139,-0.296 -0.349,-0.198 -0.625,-0.471 -0.824,-0.819 -0.199,-0.349 -0.299,-0.726 -0.299,-1.131 0,-0.615 0.206,-1.123 0.618,-1.525 0.413,-0.401 0.947,-0.602 1.603,-0.602 0.662,0 1.195,0.199 1.6,0.597 0.403,0.399 0.604,0.922 0.604,1.571 0,0.423 -0.093,0.8 -0.277,1.131 C 1.7,-0.743 1.437,-0.481 1.098,-0.289 0.757,-0.096 0.392,0 0,0 M 2.127,0.551 H 2.849 V -3.915 C 2.849,-4.701 2.78,-5.276 2.643,-5.641 2.453,-6.156 2.126,-6.552 1.658,-6.83 1.191,-7.108 0.63,-7.248 -0.025,-7.248 c -0.482,0 -0.913,0.068 -1.296,0.205 -0.383,0.136 -0.695,0.318 -0.935,0.547 -0.24,0.229 -0.462,0.564 -0.665,1.005 h 0.783 c 0.213,-0.371 0.489,-0.646 0.826,-0.824 0.336,-0.179 0.754,-0.268 1.252,-0.268 0.493,0 0.908,0.091 1.247,0.274 0.337,0.184 0.58,0.414 0.724,0.691 0.145,0.277 0.216,0.725 0.216,1.343 v 0.288 C 1.855,-4.331 1.524,-4.594 1.132,-4.778 0.74,-4.961 0.324,-5.053 -0.115,-5.053 c -0.516,0 -1.001,0.128 -1.454,0.384 -0.454,0.255 -0.805,0.6 -1.052,1.032 -0.248,0.433 -0.372,0.908 -0.372,1.427 0,0.519 0.129,1.002 0.387,1.45 0.257,0.448 0.615,0.803 1.07,1.064 0.455,0.261 0.935,0.391 1.441,0.391 0.419,0 0.811,-0.087 1.173,-0.26 C 1.44,0.262 1.79,-0.024 2.127,-0.422 Z" />
          </g>
          <g
             transform="translate(375.3708,262.5552)"
             id="g3897">
            <path
               inkscape:connector-curvature="0"
               id="path3899"
               style="fill:#010102;fill-opacity:1;fill-rule:nonzero;stroke:none"
               d="m 0,0 h 0.721 v -2.617 c 0,-0.639 0.035,-1.078 0.103,-1.319 0.104,-0.343 0.3,-0.614 0.591,-0.814 0.29,-0.199 0.637,-0.298 1.039,-0.298 0.402,0 0.744,0.097 1.025,0.291 0.28,0.194 0.473,0.449 0.58,0.765 0.072,0.216 0.108,0.675 0.108,1.375 V 0 h 0.736 v -2.751 c 0,-0.772 -0.09,-1.354 -0.27,-1.746 C 4.453,-4.889 4.182,-5.195 3.819,-5.417 3.457,-5.638 3.003,-5.749 2.457,-5.749 1.911,-5.749 1.455,-5.638 1.089,-5.417 0.724,-5.195 0.45,-4.886 0.271,-4.489 0.09,-4.093 0,-3.496 0,-2.699 Z" />
          </g>
          <g
             transform="translate(381.6032,262.5552)"
             id="g3901">
            <path
               inkscape:connector-curvature="0"
               id="path3903"
               style="fill:#010102;fill-opacity:1;fill-rule:nonzero;stroke:none"
               d="m 0,0 h 0.737 v -0.819 c 0.22,0.322 0.451,0.564 0.696,0.723 0.243,0.16 0.497,0.24 0.761,0.24 0.2,0 0.412,-0.063 0.639,-0.19 L 2.457,-0.654 c -0.15,0.065 -0.278,0.097 -0.381,0.097 -0.24,0 -0.472,-0.098 -0.695,-0.296 C 1.157,-1.05 0.987,-1.356 0.871,-1.772 0.781,-2.091 0.737,-2.737 0.737,-3.709 V -5.604 H 0 Z" />
          </g>
          <path
             inkscape:connector-curvature="0"
             id="path3905"
             style="fill:#010102;fill-opacity:1;fill-rule:nonzero;stroke:none"
             d="m 384.941,262.555 h 0.722 v -5.604 h -0.722 z m 0.358,2.308 c 0.165,0 0.304,-0.059 0.42,-0.175 0.117,-0.117 0.175,-0.258 0.175,-0.423 0,-0.161 -0.058,-0.301 -0.175,-0.417 -0.116,-0.117 -0.255,-0.175 -0.42,-0.175 -0.161,0 -0.299,0.058 -0.416,0.175 -0.116,0.116 -0.173,0.256 -0.173,0.417 0,0.165 0.057,0.306 0.173,0.423 0.117,0.116 0.255,0.175 0.416,0.175" />
          <g
             transform="translate(389.8737,262.004)"
             id="g3907">
            <path
               inkscape:connector-curvature="0"
               id="path3909"
               style="fill:#010102;fill-opacity:1;fill-rule:nonzero;stroke:none"
               d="m 0,0 c -0.401,0 -0.771,-0.099 -1.111,-0.296 -0.34,-0.197 -0.61,-0.474 -0.811,-0.831 -0.2,-0.357 -0.301,-0.734 -0.301,-1.132 0,-0.394 0.102,-0.772 0.304,-1.132 0.202,-0.36 0.474,-0.64 0.815,-0.841 0.341,-0.201 0.708,-0.301 1.099,-0.301 0.395,0 0.768,0.099 1.121,0.299 0.354,0.198 0.625,0.468 0.816,0.807 0.19,0.34 0.286,0.722 0.286,1.148 0,0.648 -0.214,1.19 -0.641,1.626 C 1.149,-0.218 0.624,0 0,0 M 2.882,2.714 V -5.053 H 2.171 V -4.09 C 1.869,-4.458 1.53,-4.734 1.153,-4.919 0.777,-5.104 0.366,-5.197 -0.08,-5.197 c -0.793,0 -1.471,0.287 -2.032,0.863 -0.562,0.575 -0.842,1.274 -0.842,2.098 0,0.807 0.283,1.498 0.85,2.071 0.566,0.574 1.248,0.86 2.044,0.86 0.46,0 0.877,-0.097 1.249,-0.293 0.373,-0.196 0.701,-0.49 0.982,-0.881 v 3.193 z" />
          </g>
          <g
             transform="translate(397.0895,262.004)"
             id="g3911">
            <path
               inkscape:connector-curvature="0"
               id="path3913"
               style="fill:#010102;fill-opacity:1;fill-rule:nonzero;stroke:none"
               d="m 0,0 c -0.401,0 -0.771,-0.099 -1.111,-0.296 -0.339,-0.197 -0.61,-0.474 -0.81,-0.831 -0.201,-0.357 -0.302,-0.734 -0.302,-1.132 0,-0.394 0.102,-0.772 0.304,-1.132 0.202,-0.36 0.475,-0.64 0.815,-0.841 0.342,-0.201 0.708,-0.301 1.099,-0.301 0.395,0 0.769,0.099 1.122,0.299 0.353,0.198 0.625,0.468 0.816,0.807 0.19,0.34 0.285,0.722 0.285,1.148 0,0.648 -0.214,1.19 -0.641,1.626 C 1.15,-0.218 0.625,0 0,0 M 2.883,0.551 V -5.053 H 2.172 V -4.09 C 1.869,-4.458 1.53,-4.734 1.154,-4.919 0.778,-5.104 0.367,-5.197 -0.079,-5.197 c -0.794,0 -1.471,0.287 -2.032,0.863 -0.562,0.575 -0.843,1.274 -0.843,2.098 0,0.807 0.283,1.498 0.85,2.071 0.567,0.574 1.249,0.86 2.045,0.86 0.46,0 0.876,-0.097 1.249,-0.293 0.372,-0.196 0.7,-0.49 0.982,-0.881 v 1.03 z" />
          </g>
          <g
             transform="translate(404.3063,262.004)"
             id="g3915">
            <path
               inkscape:connector-curvature="0"
               id="path3917"
               style="fill:#010102;fill-opacity:1;fill-rule:nonzero;stroke:none"
               d="m 0,0 c -0.401,0 -0.771,-0.099 -1.111,-0.296 -0.34,-0.197 -0.61,-0.474 -0.811,-0.831 -0.2,-0.357 -0.301,-0.734 -0.301,-1.132 0,-0.394 0.102,-0.772 0.304,-1.132 0.202,-0.36 0.474,-0.64 0.815,-0.841 0.341,-0.201 0.708,-0.301 1.099,-0.301 0.395,0 0.768,0.099 1.121,0.299 0.354,0.198 0.625,0.468 0.816,0.807 0.19,0.34 0.286,0.722 0.286,1.148 0,0.648 -0.214,1.19 -0.641,1.626 C 1.149,-0.218 0.624,0 0,0 M 2.882,2.714 V -5.053 H 2.171 V -4.09 C 1.869,-4.458 1.53,-4.734 1.153,-4.919 0.777,-5.104 0.366,-5.197 -0.08,-5.197 c -0.793,0 -1.471,0.287 -2.032,0.863 -0.562,0.575 -0.842,1.274 -0.842,2.098 0,0.807 0.283,1.498 0.85,2.071 0.566,0.574 1.248,0.86 2.044,0.86 0.46,0 0.877,-0.097 1.249,-0.293 0.373,-0.196 0.701,-0.49 0.982,-0.881 v 3.193 z" />
          </g>
        </g>
      </g>
    </g>
  </g>
</svg>
